# xmcd CD database file
#
# Track frame offsets:
#	150
#	18629
#	31288
#	53346
#	70478
#	85458
#	101883
#	117442
#	135258
#	151984
#	172281
#	187648
#
# Disc length: 2728 seconds
#
# Revision: 0
# Processed by: cddbd v1.5.2PL0 Copyright (c) Steve Scherf et al.
# Submitted via: CDex 1.51
#
DISCID=9c0aa60c
DTITLE=Francis Goya - Francis Goya Emotion
DYEAR=2007
DGENRE=New Age
TTITLE0=01.The Garden's Delight
TTITLE1=02.Softly so Softly
TTITLE2=03.Johan's Waltz
TTITLE3=04.My First Serenade
TTITLE4=05.Fot the One I Love
TTITLE5=06.Cantabile for an Angel
TTITLE6=07.Waltz for Loanah
TTITLE7=08.Valdemesa Nights
TTITLE8=09.Passion
TTITLE9=10.Romanti Encounter
TTITLE10=11.Farewell Waltz
TTITLE11=12.Tender Lullaby
EXTD=YEAR: 2007
EXTT0=
EXTT1=
EXTT2=
EXTT3=
EXTT4=
EXTT5=
EXTT6=
EXTT7=
EXTT8=
EXTT9=
EXTT10=
EXTT11=
PLAYORDER=
